<svg width="899" height="297" xmlns="http://www.w3.org/2000/svg" xmlns:svg="http://www.w3.org/2000/svg" preserveAspectRatio="xMidYMid meet">
    <metadata>Created by potrace 1.16, written by Peter Selinger 2001-2020</metadata>
    <g>
     <title>Layer 1</title>
     <g id="svg_1" fill="#000000" transform="translate(0,297) scale(0.10000000149011612,-0.10000000149011612) ">
      <path fill="#ffffff" id="svg_2" d="m3390,2369l0,-505l235,-385c130,-211 295,-481 368,-601c73,-119 135,-214 139,-212c3,2 18,24 32,48l26,45l-161,263c-89,145 -181,295 -204,333c-24,39 -109,178 -189,309l-146,240l0,293c0,161 3,293 8,293c4,-1 229,-365 501,-810c272,-446 497,-810 501,-810c7,0 975,1575 986,1605c19,48 24,-14 24,-278l0,-294l-213,-349c-118,-192 -275,-449 -350,-572l-137,-223l26,-45c14,-24 29,-46 32,-48c4,-2 172,266 375,597l367,601l0,505c0,496 0,505 -19,476c-79,-130 -869,-1422 -964,-1577c-66,-109 -123,-198 -126,-198c-4,0 -175,276 -381,613c-206,336 -455,742 -552,902l-178,289l0,-505z"/>
      <path fill="#ffffff" id="svg_3" d="m3600,2025l0,-101l58,-94c254,-413 644,-1053 648,-1064c3,-8 -20,-56 -52,-107c-32,-51 -57,-97 -57,-104c0,-14 294,-495 303,-495c8,0 303,481 303,495c0,5 -26,52 -57,104c-47,77 -56,98 -48,115c5,12 166,275 356,586l346,565l0,99c0,55 -2,97 -4,95c-2,-2 -46,-74 -98,-159c-52,-85 -152,-247 -221,-360c-69,-113 -213,-348 -320,-524l-195,-318l60,-100c34,-57 57,-105 54,-114c-9,-24 -170,-284 -176,-284c-6,0 -167,259 -176,284c-3,9 18,55 54,114l60,99l-410,669c-225,368 -413,676 -418,684c-6,10 -9,-20 -10,-85z"/>
      <path fill="#ffffff" id="svg_4" d="m4467,603c-28,-45 -28,-47 -11,-78c9,-17 23,-40 30,-50c14,-18 14,-18 28,0c7,10 21,33 30,50c17,31 17,33 -11,78c-15,26 -30,47 -33,47c-3,0 -18,-21 -33,-47z"/>
     </g>
    </g>
   </svg>