<svg version="1.0" xmlns="http://www.w3.org/2000/svg" width="1198.667" height="396" viewBox="0 0 899 297">
    <path d="M339 60.1v50.5l23.5 38.5c13 21.1 29.5 48.1 36.8 60.1 7.3 11.9 13.5 21.4 13.9 21.2.3-.2 1.8-2.4 3.2-4.8l2.6-4.5-16.1-26.3c-8.9-14.5-18.1-29.5-20.4-33.3-2.4-3.9-10.9-17.8-18.9-30.9l-14.6-24V77.3c0-16.1.3-29.3.8-29.3.4.1 22.9 36.5 50.1 81 27.2 44.6 49.7 81 50.1 81 .7 0 97.5-157.5 98.6-160.5 1.9-4.8 2.4 1.4 2.4 27.8v29.4l-21.3 34.9c-11.8 19.2-27.5 44.9-35 57.2L481 221.1l2.6 4.5c1.4 2.4 2.9 4.6 3.2 4.8.4.2 17.2-26.6 37.5-59.7l36.7-60.1V60.1c0-49.6 0-50.5-1.9-47.6-7.9 13-86.9 142.2-96.4 157.7-6.6 10.9-12.3 19.8-12.6 19.8-.4 0-17.5-27.6-38.1-61.3-20.6-33.6-45.5-74.2-55.2-90.2L339 9.6v50.5z"/>
    <path d="M360 94.5v10.1l5.8 9.4c25.4 41.3 64.4 105.3 64.8 106.4.3.8-2 5.6-5.2 10.7s-5.7 9.7-5.7 10.4c0 1.4 29.4 49.5 30.3 49.5.8 0 30.3-48.1 30.3-49.5 0-.5-2.6-5.2-5.7-10.4-4.7-7.7-5.6-9.8-4.8-11.5.5-1.2 16.6-27.5 35.6-58.6l34.6-56.5v-9.9c0-5.5-.2-9.7-.4-9.5-.2.2-4.6 7.4-9.8 15.9-5.2 8.5-15.2 24.7-22.1 36-6.9 11.3-21.3 34.8-32 52.4l-19.5 31.8 6 10c3.4 5.7 5.7 10.5 5.4 11.4-.9 2.4-17 28.4-17.6 28.4-.6 0-16.7-25.9-17.6-28.4-.3-.9 1.8-5.5 5.4-11.4l6-9.9-41-66.9C380.3 117.6 361.5 86.8 361 86c-.6-1-.9 2-1 8.5z"/>
    <path d="M446.7 236.7c-2.8 4.5-2.8 4.7-1.1 7.8.9 1.7 2.3 4 3 5 1.4 1.8 1.4 1.8 2.8 0 .7-1 2.1-3.3 3-5 1.7-3.1 1.7-3.3-1.1-7.8-1.5-2.6-3-4.7-3.3-4.7-.3 0-1.8 2.1-3.3 4.7z"/>
</svg>
