<svg width="500" height="500" xmlns="http://www.w3.org/2000/svg" xmlns:svg="http://www.w3.org/2000/svg" preserveAspectRatio="xMidYMid meet">
 <metadata>Created by potrace 1.16, written by Peter Selinger 2001-2019</metadata>
 <g>
  <title>Layer 1</title>
  <g id="svg_1" fill="#000000" transform="translate(0,500) scale(0.10000000149011612,-0.10000000149011612) ">
   <path fill="#ffffff" id="svg_2" d="m1462,4193c-24,-5 -24,4 -1,-148c5,-33 9,-64 9,-70c-1,-5 -26,39 -57,98c-55,108 -55,108 -87,101c-17,-3 -32,-7 -32,-8c-1,0 11,-91 25,-201l27,-200l28,2c16,1 31,5 34,7c3,3 0,49 -7,102c-6,53 -10,98 -8,100c2,2 27,-41 56,-97c51,-96 54,-100 80,-94c14,4 28,9 30,11c4,4 -34,310 -46,377c-3,15 -11,26 -17,26c-6,-1 -21,-4 -34,-6z"/>
   <path fill="#ffffff" id="svg_3" d="m1745,4031c-4,-87 -11,-164 -15,-171c-4,-6 -18,-10 -31,-8c-19,2 -25,10 -27,35c-2,24 -9,33 -28,37c-36,9 -44,0 -44,-53c0,-59 17,-76 86,-85c109,-14 119,4 129,247l7,157l-35,0l-35,0l-7,-159z"/>
   <path fill="#ffffff" id="svg_4" d="m2879,4168c-7,-14 -9,-44 -5,-86c4,-41 3,-69 -4,-77c-32,-39 -11,-273 30,-339c25,-42 165,-113 250,-128c36,-6 69,-15 74,-19c5,-4 -6,-66 -24,-141c-30,-125 -38,-142 -120,-283c-117,-200 -112,-191 -96,-205c10,-8 40,-9 98,-4c74,6 89,4 126,-15c22,-11 50,-21 60,-21c10,0 21,-2 24,-5c7,-7 -45,-256 -107,-520c-49,-206 -110,-621 -94,-641c12,-15 -40,-86 -85,-113c-45,-28 -50,-66 -10,-81c37,-14 95,-12 128,5c15,8 39,15 53,15l25,0l-7,79l-7,79l28,4c24,3 29,9 40,53c6,28 35,149 64,270l52,220l105,190c58,105 108,194 112,198c4,4 39,-61 78,-145c56,-120 73,-170 83,-233c16,-113 97,-517 110,-550c9,-25 14,-27 49,-22l38,5l-9,-55c-16,-102 -18,-97 32,-106c90,-17 212,-20 221,-6c13,21 -9,48 -50,59c-31,8 -43,19 -64,59c-24,43 -32,86 -73,412c-27,218 -62,439 -85,551c-29,136 -37,193 -30,206c6,10 13,166 17,351c7,323 8,333 28,345c12,7 93,23 181,35c88,12 165,27 172,33c7,5 50,69 95,141c77,122 83,134 80,177c-3,34 2,56 17,81c28,45 28,114 2,129c-31,16 -107,12 -122,-6c-10,-12 -10,-24 -1,-60c21,-77 16,-92 -68,-215l-79,-116l-77,-6c-157,-14 -169,-12 -212,35l-40,42l-68,-13c-38,-7 -80,-15 -93,-18c-21,-5 -22,-3 -16,18c4,13 14,29 21,37c8,7 15,19 15,25c2,15 3,24 13,68c6,30 3,47 -19,93c-44,94 -91,99 -175,18c-29,-28 -50,-57 -50,-70c0,-11 -4,-24 -10,-27c-14,-9 -12,-38 5,-71c12,-24 13,-85 1,-101c-1,-1 -44,9 -96,22l-95,24l-28,-26l-27,-27l-112,22c-61,12 -112,23 -114,25c-2,2 -13,52 -24,113c-11,60 -25,124 -31,142c-9,29 -7,38 20,81c53,81 36,111 -64,111c-35,0 -47,-4 -56,-22z"/>
   <path fill="#ffffff" id="svg_5" d="m580,3701l0,-484l156,-256c86,-141 180,-294 209,-341c29,-47 107,-175 175,-285c139,-227 158,-255 170,-255c9,0 50,66 50,80c0,5 -97,168 -217,362c-119,194 -267,438 -330,541l-113,189l-1,275c0,151 2,277 4,280c5,4 93,-135 354,-562c78,-126 237,-385 353,-575c117,-190 220,-357 229,-372c9,-16 18,-28 21,-28c9,0 908,1462 932,1515c6,14 14,25 18,25c11,0 20,-152 20,-358l0,-192l-177,-288c-97,-158 -248,-405 -335,-549l-160,-263l23,-40c13,-22 28,-39 33,-37c14,4 128,186 452,714l254,415l0,474c0,261 -3,474 -7,474c-5,0 -80,-118 -168,-262c-187,-308 -725,-1188 -816,-1335c-34,-56 -66,-100 -70,-98c-12,8 -415,662 -1025,1665l-34,55l0,-484z"/>
   <path fill="#ffffff" id="svg_6" d="m1936,4147c-11,-8 -31,-67 -57,-172c-48,-188 -46,-196 32,-219c93,-28 120,-18 138,52c40,152 61,245 61,270c0,35 -22,57 -75,71c-52,14 -77,14 -99,-2zm82,-63c13,-4 22,-14 22,-25c0,-28 -51,-232 -61,-243c-14,-16 -59,3 -59,25c0,17 43,200 55,237c5,14 10,14 43,6z"/>
   <path fill="#ffffff" id="svg_7" d="m1153,4134c-19,-8 -18,-10 39,-216c52,-187 52,-187 77,-181c14,3 30,9 34,13c4,4 -16,92 -46,196c-45,159 -56,189 -73,191c-10,1 -25,-1 -31,-3z"/>
   <path fill="#ffffff" id="svg_8" d="m1015,4088c-11,-6 -21,-12 -23,-13c-1,-1 11,-60 27,-131c16,-71 28,-130 26,-132c-2,-2 -38,47 -80,107c-43,61 -79,111 -81,111c-15,0 -54,-26 -52,-35c7,-27 235,-324 249,-325c8,0 24,6 35,14c19,14 18,18 -21,212c-22,109 -44,199 -50,200c-5,2 -19,-2 -30,-8z"/>
   <path fill="#ffffff" id="svg_9" d="m2216,4062c-34,-66 -157,-345 -153,-348c11,-11 139,-64 155,-64c10,0 27,9 37,20c27,30 66,121 60,140c-3,11 1,20 10,24c21,8 65,103 65,142c0,38 -7,45 -93,83l-67,30l-14,-27z"/>
   <path fill="#ffffff" id="svg_10" d="m2098,2810l-397,-650l45,-77c60,-101 67,-119 53,-146c-30,-57 -151,-247 -158,-247c-7,0 -128,187 -160,247c-13,25 -1,54 66,166l35,57l-207,338c-114,185 -291,475 -394,644c-102,169 -189,308 -193,308c-5,0 -8,-39 -8,-87l0,-86l187,-306c103,-168 255,-419 339,-557c173,-285 163,-239 82,-377l-40,-69l48,-81c66,-114 210,-348 228,-372c16,-20 16,-20 35,5c22,28 260,415 268,436c3,7 -18,53 -46,101c-28,49 -51,96 -51,104c0,9 114,203 253,430c139,228 290,475 335,550l83,135l-3,92l-3,91l-397,-649z"/>
  </g>
 </g>
</svg>