<?xml version="1.0" standalone="no"?>
<!DOCTYPE svg PUBLIC "-//W3C//DTD SVG 20010904//EN"
 "http://www.w3.org/TR/2001/REC-SVG-20010904/DTD/svg10.dtd">
<svg version="1.0" xmlns="http://www.w3.org/2000/svg"
 width="500.000000pt" height="500.000000pt" viewBox="0 0 500.000000 500.000000"
 preserveAspectRatio="xMidYMid meet">
<metadata>
Created by potrace 1.16, written by Peter Selinger 2001-2019
</metadata>
<g transform="translate(0.000000,500.000000) scale(0.100000,-0.100000)"
fill="#000000" stroke="none">
<path d="M1462 4193 c-24 -5 -24 4 -1 -148 5 -33 9 -64 9 -70 -1 -5 -26 39
-57 98 -55 108 -55 108 -87 101 -17 -3 -32 -7 -32 -8 -1 0 11 -91 25 -201 l27
-200 28 2 c16 1 31 5 34 7 3 3 0 49 -7 102 -6 53 -10 98 -8 100 2 2 27 -41 56
-97 51 -96 54 -100 80 -94 14 4 28 9 30 11 4 4 -34 310 -46 377 -3 15 -11 26
-17 26 -6 -1 -21 -4 -34 -6z"/>
<path d="M1745 4031 c-4 -87 -11 -164 -15 -171 -4 -6 -18 -10 -31 -8 -19 2
-25 10 -27 35 -2 24 -9 33 -28 37 -36 9 -44 0 -44 -53 0 -59 17 -76 86 -85
109 -14 119 4 129 247 l7 157 -35 0 -35 0 -7 -159z"/>
<path d="M2879 4168 c-7 -14 -9 -44 -5 -86 4 -41 3 -69 -4 -77 -32 -39 -11
-273 30 -339 25 -42 165 -113 250 -128 36 -6 69 -15 74 -19 5 -4 -6 -66 -24
-141 -30 -125 -38 -142 -120 -283 -117 -200 -112 -191 -96 -205 10 -8 40 -9
98 -4 74 6 89 4 126 -15 22 -11 50 -21 60 -21 10 0 21 -2 24 -5 7 -7 -45 -256
-107 -520 -49 -206 -110 -621 -94 -641 12 -15 -40 -86 -85 -113 -45 -28 -50
-66 -10 -81 37 -14 95 -12 128 5 15 8 39 15 53 15 l25 0 -7 79 -7 79 28 4 c24
3 29 9 40 53 6 28 35 149 64 270 l52 220 105 190 c58 105 108 194 112 198 4 4
39 -61 78 -145 56 -120 73 -170 83 -233 16 -113 97 -517 110 -550 9 -25 14
-27 49 -22 l38 5 -9 -55 c-16 -102 -18 -97 32 -106 90 -17 212 -20 221 -6 13
21 -9 48 -50 59 -31 8 -43 19 -64 59 -24 43 -32 86 -73 412 -27 218 -62 439
-85 551 -29 136 -37 193 -30 206 6 10 13 166 17 351 7 323 8 333 28 345 12 7
93 23 181 35 88 12 165 27 172 33 7 5 50 69 95 141 77 122 83 134 80 177 -3
34 2 56 17 81 28 45 28 114 2 129 -31 16 -107 12 -122 -6 -10 -12 -10 -24 -1
-60 21 -77 16 -92 -68 -215 l-79 -116 -77 -6 c-157 -14 -169 -12 -212 35 l-40
42 -68 -13 c-38 -7 -80 -15 -93 -18 -21 -5 -22 -3 -16 18 4 13 14 29 21 37 8
7 15 19 15 25 2 15 3 24 13 68 6 30 3 47 -19 93 -44 94 -91 99 -175 18 -29
-28 -50 -57 -50 -70 0 -11 -4 -24 -10 -27 -14 -9 -12 -38 5 -71 12 -24 13 -85
1 -101 -1 -1 -44 9 -96 22 l-95 24 -28 -26 -27 -27 -112 22 c-61 12 -112 23
-114 25 -2 2 -13 52 -24 113 -11 60 -25 124 -31 142 -9 29 -7 38 20 81 53 81
36 111 -64 111 -35 0 -47 -4 -56 -22z"/>
<path d="M580 3701 l0 -484 156 -256 c86 -141 180 -294 209 -341 29 -47 107
-175 175 -285 139 -227 158 -255 170 -255 9 0 50 66 50 80 0 5 -97 168 -217
362 -119 194 -267 438 -330 541 l-113 189 -1 275 c0 151 2 277 4 280 5 4 93
-135 354 -562 78 -126 237 -385 353 -575 117 -190 220 -357 229 -372 9 -16 18
-28 21 -28 9 0 908 1462 932 1515 6 14 14 25 18 25 11 0 20 -152 20 -358 l0
-192 -177 -288 c-97 -158 -248 -405 -335 -549 l-160 -263 23 -40 c13 -22 28
-39 33 -37 14 4 128 186 452 714 l254 415 0 474 c0 261 -3 474 -7 474 -5 0
-80 -118 -168 -262 -187 -308 -725 -1188 -816 -1335 -34 -56 -66 -100 -70 -98
-12 8 -415 662 -1025 1665 l-34 55 0 -484z"/>
<path d="M1936 4147 c-11 -8 -31 -67 -57 -172 -48 -188 -46 -196 32 -219 93
-28 120 -18 138 52 40 152 61 245 61 270 0 35 -22 57 -75 71 -52 14 -77 14
-99 -2z m82 -63 c13 -4 22 -14 22 -25 0 -28 -51 -232 -61 -243 -14 -16 -59 3
-59 25 0 17 43 200 55 237 5 14 10 14 43 6z"/>
<path d="M1153 4134 c-19 -8 -18 -10 39 -216 52 -187 52 -187 77 -181 14 3 30
9 34 13 4 4 -16 92 -46 196 -45 159 -56 189 -73 191 -10 1 -25 -1 -31 -3z"/>
<path d="M1015 4088 c-11 -6 -21 -12 -23 -13 -1 -1 11 -60 27 -131 16 -71 28
-130 26 -132 -2 -2 -38 47 -80 107 -43 61 -79 111 -81 111 -15 0 -54 -26 -52
-35 7 -27 235 -324 249 -325 8 0 24 6 35 14 19 14 18 18 -21 212 -22 109 -44
199 -50 200 -5 2 -19 -2 -30 -8z"/>
<path d="M2216 4062 c-34 -66 -157 -345 -153 -348 11 -11 139 -64 155 -64 10
0 27 9 37 20 27 30 66 121 60 140 -3 11 1 20 10 24 21 8 65 103 65 142 0 38
-7 45 -93 83 l-67 30 -14 -27z"/>
<path d="M2098 2810 l-397 -650 45 -77 c60 -101 67 -119 53 -146 -30 -57 -151
-247 -158 -247 -7 0 -128 187 -160 247 -13 25 -1 54 66 166 l35 57 -207 338
c-114 185 -291 475 -394 644 -102 169 -189 308 -193 308 -5 0 -8 -39 -8 -87
l0 -86 187 -306 c103 -168 255 -419 339 -557 173 -285 163 -239 82 -377 l-40
-69 48 -81 c66 -114 210 -348 228 -372 16 -20 16 -20 35 5 22 28 260 415 268
436 3 7 -18 53 -46 101 -28 49 -51 96 -51 104 0 9 114 203 253 430 139 228
290 475 335 550 l83 135 -3 92 -3 91 -397 -649z"/>
</g>
</svg>
